<svg id="Layer_1" data-name="Layer 1" xmlns="http://www.w3.org/2000/svg" viewBox="0 0 178.73 28.1"><defs><style>.cls-1{fill:#c43ee1;stroke:#fff;stroke-linecap:round;stroke-miterlimit:10;}.cls-2{font-size:17.75px;fill:#fff;font-family:SofiaProMedium, Sofia Pro;}.cls-3{letter-spacing:-0.09em;}.cls-4{letter-spacing:-0.01em;}.cls-5{letter-spacing:0em;}.cls-6{letter-spacing:-0.03em;}</style></defs><title>logowhite</title><path class="cls-1" d="M71.55,69.18h4.3V66.27a3.23,3.23,0,0,1,3.06-3.37h29.45a3.23,3.23,0,0,1,3.06,3.37h0a2.78,2.78,0,0,0,2.64,2.91H119" transform="translate(-62.3 -62.4)"/><path class="cls-1" d="M70.58,71.52h4.3V68.61a3.23,3.23,0,0,1,3.06-3.37h29.44a3.23,3.23,0,0,1,3.06,3.37h0a2.79,2.79,0,0,0,2.65,2.91H118" transform="translate(-62.3 -62.4)"/><path class="cls-1" d="M69.61,74.2h2a2.46,2.46,0,0,0,2.33-2.57v-.35a3.22,3.22,0,0,1,3-3.36h29.45a3.22,3.22,0,0,1,3.06,3.36h0a2.79,2.79,0,0,0,2.65,2.92h4.94" transform="translate(-62.3 -62.4)"/><path class="cls-1" d="M68.63,76.62h19V72.31a3,3,0,0,1,2.81-3.09H91.5a3,3,0,0,1,2.8,3.09h0a4.13,4.13,0,0,0,3.92,4.31H115.8" transform="translate(-62.3 -62.4)"/><path class="cls-1" d="M67.66,79.29h19V75a3,3,0,0,1,2.81-3.09h1.06A3,3,0,0,1,93.33,75h0a4.13,4.13,0,0,0,3.92,4.31h17.58" transform="translate(-62.3 -62.4)"/><path class="cls-1" d="M66.69,81.44h19V77.12A3,3,0,0,1,88.49,74h1.06a3,3,0,0,1,2.81,3.09h0a4.13,4.13,0,0,0,3.92,4.32h17.57" transform="translate(-62.3 -62.4)"/><path class="cls-1" d="M65.72,83.58h19V79.26a3,3,0,0,1,2.8-3.09h1.07a3,3,0,0,1,2.81,3.09h0a4.13,4.13,0,0,0,3.91,4.32h17.58" transform="translate(-62.3 -62.4)"/><path class="cls-1" d="M64.74,85.72h19V81.41a3,3,0,0,1,2.81-3.09h1.07a3,3,0,0,1,2.8,3.09h0a4.13,4.13,0,0,0,3.92,4.31h17.58" transform="translate(-62.3 -62.4)"/><path class="cls-1" d="M63.77,87.86h19V83.55a3,3,0,0,1,2.81-3.09h1.06a3,3,0,0,1,2.81,3.09h0a4.13,4.13,0,0,0,3.92,4.31h17.58" transform="translate(-62.3 -62.4)"/><path class="cls-1" d="M62.8,90H79.69a2.22,2.22,0,0,0,2.1-2.31v-2A3,3,0,0,1,84.6,82.6h1.06a3,3,0,0,1,2.81,3.09h0A4.13,4.13,0,0,0,92.39,90H110" transform="translate(-62.3 -62.4)"/><text class="cls-2" transform="translate(64.8 22.07)"><tspan class="cls-3">T</tspan><tspan x="8.25" y="0">opoG</tspan><tspan class="cls-4" x="52.9" y="0">r</tspan><tspan class="cls-5" x="59.66" y="0">aphQ</tspan><tspan class="cls-6" x="105.53" y="0">L</tspan></text></svg>