<svg id="Layer_1" data-name="Layer 1" xmlns="http://www.w3.org/2000/svg" viewBox="0 0 246.7 46.55"><defs><style>.cls-1{fill:#c43ee1;}.cls-2{fill:#f1f3f5;stroke:#c43ee1;stroke-linecap:round;stroke-miterlimit:10;}</style></defs><title>logopink</title><path class="cls-1" d="M195.39,302.19v14.22h-2V302.19h-4.8V300.3h11.63v1.89Z" transform="translate(-82.3 -282.5)"/><path class="cls-1" d="M208.25,315.36a5.18,5.18,0,0,1-6.95,0,7.55,7.55,0,0,1,0-9.4,5.18,5.18,0,0,1,6.95,0,7.59,7.59,0,0,1,0,9.4Zm-1.41-8.27a3,3,0,0,0-4.14,0,6.52,6.52,0,0,0,0,7.13,3,3,0,0,0,4.14,0,6.47,6.47,0,0,0,0-7.13Z" transform="translate(-82.3 -282.5)"/><path class="cls-1" d="M221.65,315.57a4.53,4.53,0,0,1-3.16,1.15,4,4,0,0,1-3.34-1.63v6.24h-1.93v-16.4h1.7l.14,1.5a4.05,4.05,0,0,1,3.43-1.79,4.39,4.39,0,0,1,3.25,1.25,7.72,7.72,0,0,1-.09,9.68Zm-3.48-9.3a2.63,2.63,0,0,0-1.86.75,5.91,5.91,0,0,0,0,7.32,2.63,2.63,0,0,0,1.86.75c2.57,0,3.25-2.3,3.25-4.41S220.74,306.27,218.17,306.27Z" transform="translate(-82.3 -282.5)"/><path class="cls-1" d="M234.44,315.36a5.19,5.19,0,0,1-7,0,7.59,7.59,0,0,1,0-9.4,5.19,5.19,0,0,1,7,0,7.59,7.59,0,0,1,0,9.4ZM233,307.09a3,3,0,0,0-4.14,0,6.52,6.52,0,0,0,0,7.13,3,3,0,0,0,4.14,0,6.52,6.52,0,0,0,0-7.13Z" transform="translate(-82.3 -282.5)"/><path class="cls-1" d="M250.61,316.66l-.34-1.93a5.21,5.21,0,0,1-4.38,2.25,6.1,6.1,0,0,1-4.34-1.66c-1.63-1.59-2.09-3.81-2.09-6.7,0-2.57.34-4.93,2.09-6.63a6.17,6.17,0,0,1,4.34-1.73,6.28,6.28,0,0,1,4.61,1.82,4.86,4.86,0,0,1,1.39,3.13h-2.12a3,3,0,0,0-.72-1.77,4,4,0,0,0-3.16-1.27A4.07,4.07,0,0,0,243,303.4c-1.32,1.36-1.41,3.54-1.41,5.22s.11,3.93,1.45,5.29a3.93,3.93,0,0,0,2.89,1.16,4.1,4.1,0,0,0,2.93-1.11,5.62,5.62,0,0,0,1.39-4.09h-4.32V308H252v8.67Z" transform="translate(-82.3 -282.5)"/><path class="cls-1" d="M261,307a3.15,3.15,0,0,0-2.18.91c-.93.89-1,2.48-1,3.68v5.11h-1.9V305.17h1.7l.16,2a3.56,3.56,0,0,1,3.43-2.09,5.67,5.67,0,0,1,.91.07v1.88A6.44,6.44,0,0,0,261,307Z" transform="translate(-82.3 -282.5)"/><path class="cls-1" d="M272.67,316.82a1.64,1.64,0,0,1-1.66-1.75h0a4.2,4.2,0,0,1-3.71,1.89,3.6,3.6,0,0,1-3.95-3.55c0-1.47,1-3.4,4.09-3.58l3.5-.21v-.84a2.28,2.28,0,0,0-.59-1.75,2.63,2.63,0,0,0-1.89-.59,2.89,2.89,0,0,0-2.09.68,1.92,1.92,0,0,0-.57,1.39h-1.88a3.39,3.39,0,0,1,1-2.41,4.92,4.92,0,0,1,3.54-1.23c2.23,0,3.5,1,4.05,2.21a4.5,4.5,0,0,1,.34,1.77v5.56c0,.62.25.78.63.78a2.65,2.65,0,0,0,.5-.07v1.43A2.71,2.71,0,0,1,272.67,316.82Zm-1.77-5.7-3.09.18c-1.16.07-2.52.62-2.52,2.07,0,1,.63,2,2.27,2a3.23,3.23,0,0,0,2.36-.94,3.7,3.7,0,0,0,1-2.61Z" transform="translate(-82.3 -282.5)"/><path class="cls-1" d="M285.43,315.82a4.44,4.44,0,0,1-3.15,1.16,4,4,0,0,1-3.34-1.63v6.24H277v-16.4h1.7l.14,1.5a4,4,0,0,1,3.43-1.79,4.35,4.35,0,0,1,3.25,1.25,7.73,7.73,0,0,1-.1,9.67ZM282,306.53a2.63,2.63,0,0,0-1.86.75,5.87,5.87,0,0,0,0,7.32,2.68,2.68,0,0,0,1.86.75c2.57,0,3.25-2.3,3.25-4.41S284.53,306.53,282,306.53Z" transform="translate(-82.3 -282.5)"/><path class="cls-1" d="M297.88,316.66v-7.29c0-1.73-.7-2.75-2.52-2.75a2.83,2.83,0,0,0-2.5,1.77,7.71,7.71,0,0,0-.41,2.93v5.34h-1.93v-16.4h1.93v6.43a3.92,3.92,0,0,1,3.37-1.82c2.61,0,4,1.57,4,4.23v7.56Z" transform="translate(-82.3 -282.5)"/><path class="cls-1" d="M313.71,315.23l1.46,1.89-1.34,1-1.48-1.91a6.52,6.52,0,0,1-3,.73,6.17,6.17,0,0,1-4.34-1.73c-1.75-1.7-2.06-4.06-2.06-6.63s.31-4.93,2.06-6.63a6.31,6.31,0,0,1,8.68,0c1.75,1.7,2.07,4.06,2.07,6.63S315.44,313.53,313.71,315.23Zm-1.43-11.83a4.15,4.15,0,0,0-5.86,0c-1.32,1.36-1.38,3.54-1.38,5.22s.06,3.86,1.38,5.23a4.08,4.08,0,0,0,2.93,1.2,4.31,4.31,0,0,0,1.77-.39l-1.9-2.45,1.31-1,1.93,2.45c1.14-1.36,1.21-3.41,1.21-5S313.6,304.76,312.28,303.4Z" transform="translate(-82.3 -282.5)"/><path class="cls-1" d="M319.23,316.66v-16.1h2v14.22H329v1.88Z" transform="translate(-82.3 -282.5)"/><path class="cls-2" d="M97.51,293.56h7.23v-4.9a5.42,5.42,0,0,1,5.14-5.66h49.49a5.42,5.42,0,0,1,5.14,5.66h0a4.69,4.69,0,0,0,4.45,4.9h8.3" transform="translate(-82.3 -282.5)"/><path class="cls-2" d="M95.88,297.49h7.22v-4.9a5.42,5.42,0,0,1,5.14-5.66h49.5a5.42,5.42,0,0,1,5.14,5.66h0a4.69,4.69,0,0,0,4.45,4.9H177" transform="translate(-82.3 -282.5)"/><path class="cls-2" d="M94.24,302h3.31a4.13,4.13,0,0,0,3.92-4.31v-.59a5.42,5.42,0,0,1,5.14-5.66H156.1a5.42,5.42,0,0,1,5.14,5.66h0a4.69,4.69,0,0,0,4.45,4.9H177" transform="translate(-82.3 -282.5)"/><path class="cls-2" d="M92.61,306.05h31.92v-7.24a5,5,0,0,1,4.71-5.2H131a5,5,0,0,1,4.72,5.2h0c0,4,2.95,7.24,6.58,7.24H177" transform="translate(-82.3 -282.5)"/><path class="cls-2" d="M91,310.55h31.92v-7.24a5,5,0,0,1,4.72-5.2h1.79a5,5,0,0,1,4.72,5.2h0c0,4,2.94,7.24,6.58,7.24H177" transform="translate(-82.3 -282.5)"/><path class="cls-2" d="M89.34,314.15h31.92V306.9a5,5,0,0,1,4.71-5.19h1.79a5,5,0,0,1,4.72,5.19h0c0,4,3,7.25,6.59,7.25H177" transform="translate(-82.3 -282.5)"/><path class="cls-2" d="M87.7,317.75h31.92V310.5a5,5,0,0,1,4.72-5.19h1.79a5,5,0,0,1,4.72,5.19h0c0,4,3,7.25,6.58,7.25H177" transform="translate(-82.3 -282.5)"/><path class="cls-2" d="M86.07,321.35H118V314.1a5,5,0,0,1,4.72-5.19h1.78a5,5,0,0,1,4.72,5.19h0c0,4,2.95,7.25,6.59,7.25H177" transform="translate(-82.3 -282.5)"/><path class="cls-2" d="M84.43,325h31.92V317.7a5,5,0,0,1,4.72-5.19h1.79a5,5,0,0,1,4.72,5.19h0c0,4,3,7.25,6.58,7.25H177" transform="translate(-82.3 -282.5)"/><path class="cls-2" d="M82.8,328.55h28.39a3.72,3.72,0,0,0,3.53-3.89V321.3a5,5,0,0,1,4.72-5.19h1.79a5,5,0,0,1,4.71,5.19h0c0,4,2.95,7.25,6.59,7.25H177" transform="translate(-82.3 -282.5)"/></svg>