<svg id="Layer_1" data-name="Layer 1" xmlns="http://www.w3.org/2000/svg" viewBox="0 0 135.7 24.1"><defs><style>.cls-1{fill:#fff;stroke:#c43ee1;stroke-linecap:round;stroke-miterlimit:10;}.cls-2{font-size:12.45px;fill:#c43ee1;font-family:SofiaProMedium, Sofia Pro;}.cls-3{letter-spacing:-0.09em;}.cls-4{letter-spacing:-0.01em;}.cls-5{letter-spacing:0em;}.cls-6{letter-spacing:-0.03em;}</style></defs><title>logopink</title><path class="cls-1" d="M70.26,70.26h3.66V67.77a2.75,2.75,0,0,1,2.61-2.87h25.1a2.75,2.75,0,0,1,2.61,2.87h0a2.38,2.38,0,0,0,2.25,2.49h4.21" transform="translate(-62.3 -64.4)"/><path class="cls-1" d="M69.43,72.25h3.66V69.77a2.76,2.76,0,0,1,2.61-2.88h25.1a2.76,2.76,0,0,1,2.61,2.88h0a2.38,2.38,0,0,0,2.26,2.48h4.21" transform="translate(-62.3 -64.4)"/><path class="cls-1" d="M68.6,74.53h1.68a2.09,2.09,0,0,0,2-2.18v-.3a2.74,2.74,0,0,1,2.6-2.87H100a2.75,2.75,0,0,1,2.61,2.87h0a2.38,2.38,0,0,0,2.26,2.48h4.21" transform="translate(-62.3 -64.4)"/><path class="cls-1" d="M67.77,76.59H84V72.92a2.52,2.52,0,0,1,2.39-2.64h.91a2.52,2.52,0,0,1,2.39,2.64h0A3.52,3.52,0,0,0,93,76.59h15" transform="translate(-62.3 -64.4)"/><path class="cls-1" d="M66.94,78.87H83.13V75.2a2.51,2.51,0,0,1,2.39-2.63h.91a2.51,2.51,0,0,1,2.39,2.63h0a3.52,3.52,0,0,0,3.34,3.67h15" transform="translate(-62.3 -64.4)"/><path class="cls-1" d="M66.12,80.7H82.3V77a2.52,2.52,0,0,1,2.39-2.63h.91A2.53,2.53,0,0,1,88,77h0a3.52,3.52,0,0,0,3.33,3.68h15" transform="translate(-62.3 -64.4)"/><path class="cls-1" d="M65.29,82.52H81.47V78.85a2.52,2.52,0,0,1,2.4-2.63h.9a2.52,2.52,0,0,1,2.4,2.63h0a3.51,3.51,0,0,0,3.33,3.67h15" transform="translate(-62.3 -64.4)"/><path class="cls-1" d="M64.46,84.35H80.64V80.67A2.53,2.53,0,0,1,83,78h.9a2.52,2.52,0,0,1,2.4,2.63h0a3.52,3.52,0,0,0,3.34,3.68h15" transform="translate(-62.3 -64.4)"/><path class="cls-1" d="M63.63,86.17H79.82V82.5a2.51,2.51,0,0,1,2.39-2.63h.91a2.51,2.51,0,0,1,2.39,2.63h0a3.51,3.51,0,0,0,3.34,3.67h15" transform="translate(-62.3 -64.4)"/><path class="cls-1" d="M62.8,88H77.2A1.89,1.89,0,0,0,79,86V84.32a2.52,2.52,0,0,1,2.39-2.63h.91a2.52,2.52,0,0,1,2.39,2.63h0A3.52,3.52,0,0,0,88,88h15" transform="translate(-62.3 -64.4)"/><text class="cls-2" transform="translate(55.8 18.63)"><tspan class="cls-3">T</tspan><tspan x="5.79" y="0">opoG</tspan><tspan class="cls-4" x="37.1" y="0">r</tspan><tspan class="cls-5" x="41.84" y="0">aphQ</tspan><tspan class="cls-6" x="74.01" y="0">L</tspan></text></svg>