<svg id="Layer_1" data-name="Layer 1" xmlns="http://www.w3.org/2000/svg" viewBox="0 0 138.93 37.06"><defs><style>.cls-1{font-size:15.85px;letter-spacing:-0.09em;}.cls-1,.cls-3{fill:#c43ee1;font-family:SofiaProMedium, Sofia Pro;}.cls-2{letter-spacing:0em;}.cls-3{font-size:15.85px;}.cls-4{letter-spacing:-0.01em;}.cls-5{letter-spacing:-0.03em;}.cls-6{fill:#fff;stroke:#c43ee1;stroke-linecap:round;stroke-miterlimit:10;}</style></defs><title>logopink2line</title><text class="cls-1" transform="translate(73.31 16.8) rotate(1.2)">T<tspan class="cls-2" x="7.37" y="0">opo</tspan></text><text class="cls-3" transform="translate(72.46 32.8)">G<tspan class="cls-4" x="11.95" y="0">r</tspan><tspan x="17.99" y="0">aphQ</tspan><tspan class="cls-5" x="58.97" y="0">L</tspan></text><path class="cls-6" d="M65.38,118.25h5.05v-3.42a3.79,3.79,0,0,1,3.6-4h34.58a3.79,3.79,0,0,1,3.59,4h0a3.27,3.27,0,0,0,3.11,3.42h5.8" transform="translate(-54.61 -110.37)"/><path class="cls-6" d="M64.24,121h5.05v-3.43a3.79,3.79,0,0,1,3.59-3.95h34.58a3.79,3.79,0,0,1,3.6,3.95h0a3.28,3.28,0,0,0,3.1,3.43H120" transform="translate(-54.61 -110.37)"/><path class="cls-6" d="M63.1,124.14h2.31a2.89,2.89,0,0,0,2.74-3v-.41a3.79,3.79,0,0,1,3.59-4h34.58a3.78,3.78,0,0,1,3.59,4h0a3.28,3.28,0,0,0,3.11,3.42h5.8" transform="translate(-54.61 -110.37)"/><path class="cls-6" d="M62,127h22.3v-5.06a3.48,3.48,0,0,1,3.3-3.63h1.25a3.47,3.47,0,0,1,3.29,3.63h0A4.85,4.85,0,0,0,96.7,127h20.65" transform="translate(-54.61 -110.37)"/><path class="cls-6" d="M60.82,130.12h22.3v-5.06a3.47,3.47,0,0,1,3.29-3.63h1.25a3.48,3.48,0,0,1,3.3,3.63h0a4.84,4.84,0,0,0,4.6,5.06H116.2" transform="translate(-54.61 -110.37)"/><path class="cls-6" d="M59.67,132.64H82v-5.06A3.47,3.47,0,0,1,85.27,124h1.25a3.48,3.48,0,0,1,3.3,3.63h0a4.85,4.85,0,0,0,4.6,5.06h20.64" transform="translate(-54.61 -110.37)"/><path class="cls-6" d="M58.53,135.15h22.3v-5.06a3.48,3.48,0,0,1,3.3-3.63h1.25a3.48,3.48,0,0,1,3.3,3.63h0a4.84,4.84,0,0,0,4.6,5.06h20.64" transform="translate(-54.61 -110.37)"/><path class="cls-6" d="M57.39,137.67h22.3V132.6A3.48,3.48,0,0,1,83,129h1.25a3.47,3.47,0,0,1,3.29,3.63h0a4.85,4.85,0,0,0,4.6,5.07h20.65" transform="translate(-54.61 -110.37)"/><path class="cls-6" d="M56.25,140.18h22.3v-5.06a3.47,3.47,0,0,1,3.3-3.63H83.1a3.47,3.47,0,0,1,3.29,3.63h0a4.85,4.85,0,0,0,4.6,5.06h20.65" transform="translate(-54.61 -110.37)"/><path class="cls-6" d="M55.11,142.7H74.94A2.61,2.61,0,0,0,77.41,140v-2.35A3.47,3.47,0,0,1,80.7,134H82a3.48,3.48,0,0,1,3.3,3.63h0a4.85,4.85,0,0,0,4.6,5.07h20.64" transform="translate(-54.61 -110.37)"/></svg>