<svg id="Layer_1" data-name="Layer 1" xmlns="http://www.w3.org/2000/svg" viewBox="0 0 137.58 34.92"><defs><style>.cls-1{font-size:15.85px;}.cls-1,.cls-3{fill:#c43ee1;font-family:SofiaPro-Bold, Sofia Pro;font-weight:700;}.cls-2{letter-spacing:-0.08em;}.cls-3{font-size:15.85px;}.cls-4{letter-spacing:-0.01em;}.cls-5{letter-spacing:-0.03em;}.cls-6{fill:#fff;stroke:#c43ee1;stroke-linecap:round;stroke-miterlimit:10;}</style></defs><title>logopink</title><text class="cls-1" transform="translate(71.31 14.8) rotate(1.2)"><tspan class="cls-2">T</tspan><tspan x="7.53" y="0">opo</tspan></text><text class="cls-3" transform="translate(70.46 30.8)">G<tspan class="cls-4" x="11.97" y="0">r</tspan><tspan x="18.31" y="0">aphQ</tspan><tspan class="cls-5" x="59.45" y="0">L</tspan></text><path class="cls-6" d="M45.26,36.92h5.05V33.5a3.79,3.79,0,0,1,3.6-4H88.49a3.79,3.79,0,0,1,3.59,4h0a3.27,3.27,0,0,0,3.11,3.42H101" transform="translate(-34.49 -29.04)"/><path class="cls-6" d="M44.12,39.66h5.05V36.24a3.79,3.79,0,0,1,3.59-4H87.34a3.79,3.79,0,0,1,3.6,4h0A3.27,3.27,0,0,0,94,39.66h5.8" transform="translate(-34.49 -29.04)"/><path class="cls-6" d="M43,42.81h2.31a2.89,2.89,0,0,0,2.74-3v-.41a3.79,3.79,0,0,1,3.59-4H86.2a3.78,3.78,0,0,1,3.59,4h0a3.29,3.29,0,0,0,3.11,3.42h5.8" transform="translate(-34.49 -29.04)"/><path class="cls-6" d="M41.84,45.65h22.3V40.59A3.48,3.48,0,0,1,67.44,37h1.25A3.47,3.47,0,0,1,72,40.59h0a4.85,4.85,0,0,0,4.6,5.06H97.23" transform="translate(-34.49 -29.04)"/><path class="cls-6" d="M40.7,48.79H63V43.73a3.47,3.47,0,0,1,3.29-3.63h1.25a3.47,3.47,0,0,1,3.3,3.63h0a4.84,4.84,0,0,0,4.6,5.06H96.08" transform="translate(-34.49 -29.04)"/><path class="cls-6" d="M39.55,51.31H61.86V46.24a3.47,3.47,0,0,1,3.29-3.63H66.4a3.48,3.48,0,0,1,3.3,3.63h0a4.85,4.85,0,0,0,4.6,5.07H94.94" transform="translate(-34.49 -29.04)"/><path class="cls-6" d="M38.41,53.82h22.3V48.76A3.48,3.48,0,0,1,64,45.13h1.25a3.48,3.48,0,0,1,3.3,3.63h0a4.85,4.85,0,0,0,4.6,5.06H93.8" transform="translate(-34.49 -29.04)"/><path class="cls-6" d="M37.27,56.34h22.3V51.27a3.48,3.48,0,0,1,3.3-3.63h1.25a3.47,3.47,0,0,1,3.29,3.63h0A4.85,4.85,0,0,0,72,56.34H92.66" transform="translate(-34.49 -29.04)"/><path class="cls-6" d="M36.13,58.85h22.3V53.79a3.48,3.48,0,0,1,3.3-3.63H63a3.47,3.47,0,0,1,3.29,3.63h0a4.85,4.85,0,0,0,4.6,5.06H91.52" transform="translate(-34.49 -29.04)"/><path class="cls-6" d="M35,61.36H54.82a2.6,2.6,0,0,0,2.47-2.71V56.3a3.47,3.47,0,0,1,3.29-3.63h1.25a3.48,3.48,0,0,1,3.3,3.63h0a4.84,4.84,0,0,0,4.6,5.06H90.37" transform="translate(-34.49 -29.04)"/></svg>